<?xml version="1.0" encoding="iso-8859-1"?>
<!-- Uploaded to: SVG Repo, www.svgrepo.com, Generator: SVG Repo Mixer Tools -->
<svg height="800px" width="800px" version="1.1" id="Layer_1" xmlns="http://www.w3.org/2000/svg" xmlns:xlink="http://www.w3.org/1999/xlink" 
	 viewBox="0 0 512 512" xml:space="preserve">
<path style="fill:#C6DCE5;" d="M456.348,512c-27.619,0-50.087-22.468-50.087-50.087v-16.696H89.043
	c-9.223,0-16.696-7.473-16.696-16.696v-66.783c0-9.223,7.473-16.696,16.696-16.696h367.304c27.619,0,50.087,22.468,50.087,50.087
	v66.783C506.435,489.532,483.967,512,456.348,512z"/>
<path style="fill:#AAC9D6;" d="M456.348,417.391c0-9.22-7.475-16.696-16.696-16.696H89.043c-9.223,0-16.696-7.473-16.696-16.696
	v44.522c0,9.22,7.475,16.696,16.696,16.696h317.217v16.696c0,27.619,22.468,50.087,50.087,50.087V417.391z"/>
<path style="fill:#E3EDED;" d="M55.652,478.609c-27.619,0-50.087-22.468-50.087-50.087V50.087C5.565,22.468,28.033,0,55.652,0
	s50.087,22.468,50.087,50.087v378.435C105.739,456.141,83.271,478.609,55.652,478.609z"/>
<path style="fill:#C6DCE5;" d="M456.348,33.391c-130.376,0-237.641,0-367.304,0c-9.223,0-16.696,7.473-16.696,16.696v66.783
	c0,9.223,7.473,16.696,16.696,16.696c129.664,0,236.929,0,367.304,0c9.223,0,16.696-7.473,16.696-16.696V50.087
	C473.043,40.864,465.57,33.391,456.348,33.391z"/>
<path style="fill:#AAC9D6;" d="M72.348,77.913v38.957c0,9.223,7.473,16.696,16.696,16.696c129.663,0,236.929,0,367.304,0
	c9.223,0,16.696-7.473,16.696-16.696V77.913H72.348z"/>
<path style="fill:#C6DCE5;" d="M105.739,428.522V50.087C105.739,22.468,83.271,0,55.652,0v478.609
	C83.271,478.609,105.739,456.141,105.739,428.522z"/>
<path style="fill:#E3EDED;" d="M189.217,478.609c-27.619,0-50.087-22.468-50.087-50.087V50.087C139.13,22.468,161.598,0,189.217,0
	s50.087,22.468,50.087,50.087v378.435C239.304,456.141,216.836,478.609,189.217,478.609z"/>
<path style="fill:#C6DCE5;" d="M239.304,428.522V50.087C239.304,22.468,216.836,0,189.217,0v478.609
	C216.836,478.609,239.304,456.141,239.304,428.522z"/>
<path style="fill:#E3EDED;" d="M322.783,478.609c-27.619,0-50.087-22.468-50.087-50.087V50.087C272.696,22.468,295.164,0,322.783,0
	s50.087,22.468,50.087,50.087v378.435C372.87,456.141,350.402,478.609,322.783,478.609z"/>
<path style="fill:#C6DCE5;" d="M372.87,428.522V50.087C372.87,22.468,350.402,0,322.783,0v478.609
	C350.402,478.609,372.87,456.141,372.87,428.522z"/>
</svg>