<?xml version="1.0" encoding="iso-8859-1"?>
<!-- Uploaded to: SVG Repo, www.svgrepo.com, Generator: SVG Repo Mixer Tools -->
<svg fill="#000000" height="800px" width="800px" version="1.1" id="Layer_1" xmlns="http://www.w3.org/2000/svg" xmlns:xlink="http://www.w3.org/1999/xlink" 
	 viewBox="0 0 512.015 512.015" xml:space="preserve">
<g>
	<g>
		<g>
			<path d="M316.421,350.835c-6.536-9.803-19.781-12.452-29.584-5.917l-30.833,20.555v-24.138c0-11.782-9.551-21.333-21.333-21.333
				c-11.782,0-21.333,9.551-21.333,21.333v24.138l-30.833-20.555c-9.803-6.536-23.048-3.886-29.584,5.917
				s-3.886,23.048,5.917,29.584l37.374,24.916l-37.374,24.916c-9.803,6.536-12.452,19.781-5.917,29.584s19.781,12.452,29.584,5.917
				l30.833-20.555v24.138c0,11.782,9.551,21.333,21.333,21.333c11.782,0,21.333-9.551,21.333-21.333v-24.138l30.833,20.555
				c9.803,6.536,23.048,3.886,29.584-5.917s3.886-23.049-5.917-29.584l-37.374-24.916l37.374-24.916
				C320.308,373.884,322.957,360.638,316.421,350.835z"/>
			<path d="M508.421,350.835c-6.536-9.803-19.781-12.452-29.584-5.917l-30.833,20.555v-24.138c0-11.782-9.551-21.333-21.333-21.333
				s-21.333,9.551-21.333,21.333v24.138l-30.833-20.555c-9.803-6.536-23.049-3.886-29.584,5.917s-3.886,23.048,5.917,29.584
				l37.374,24.916l-37.374,24.916c-9.803,6.536-12.452,19.781-5.917,29.584s19.781,12.452,29.584,5.917l30.833-20.555v24.138
				c0,11.782,9.551,21.333,21.333,21.333s21.333-9.551,21.333-21.333v-24.138l30.833,20.555c9.803,6.536,23.049,3.886,29.584-5.917
				s3.886-23.049-5.917-29.584l-37.374-24.916l37.374-24.916C512.308,373.884,514.957,360.638,508.421,350.835z"/>
			<path d="M286.256,135.956c1.483-8.901,4.6-17.358,9.185-25.024l1.576-2.634c11.593-17.543,30.62-28.921,51.935-28.921
				c30.637,0,56.569,23.484,62.447,55.036c-32.209,10.12-55.437,41.31-55.437,77.858c0,11.782,9.551,21.333,21.333,21.333
				c11.782,0,21.333-9.551,21.333-21.333c0-21.607,16.111-38.656,35.349-38.656c19.258,0,35.371,17.047,35.371,38.656
				c0,11.782,9.551,21.333,21.333,21.333c11.782,0,21.333-9.551,21.333-21.333c0-37.344-24.25-69.087-57.558-78.484
				c-6.661-54.556-51.131-97.076-105.505-97.076c-27.307,0-52.112,10.73-70.889,28.317c-24.627-27.362-59.156-43.681-96.524-43.681
				c-1.267,0.022-1.267,0.022-1.994,0.068c-0.432,0.029-23.215,1.167-23.215,1.167l2.774,22.745
				c0.146,1.161,0.146,1.161,0.287,2.205c0.509,3.704,0.622,4.818,0.622,5.815c0,35.343-28.657,64-64,64
				c-5.223,0-10.748-0.913-17.315-2.787l-21.976-6.27l-4.745,22.355c-2.274,10.711-3.473,20.414-3.473,30.222
				c0,29.037,8.568,56.608,23.842,79.544c-23.231,8.219-43.744,24.785-57.128,48.111c-30.003,52.19-14.329,120.134,35.464,152.164
				c9.909,6.374,23.109,3.509,29.483-6.4c6.374-9.909,3.509-23.109-6.4-29.483c-30.478-19.606-40.338-62.346-21.548-95.031
				c13.608-23.716,38.687-35.659,63.175-31.887c4.664,11.674,12.001,22.386,21.949,31.053c8.884,7.739,22.359,6.811,30.099-2.073
				c7.739-8.884,6.811-22.359-2.073-30.099c-5.82-5.07-9.784-11.728-11.795-18.95c-0.15-1.35-0.43-2.676-0.829-3.96
				c-1.379-7.752-0.589-15.658,2.245-22.759c0.01-0.025,0.021-0.051,0.031-0.076c0.246-0.613,0.51-1.218,0.786-1.818
				c0.05-0.109,0.102-0.218,0.153-0.327c0.244-0.518,0.501-1.029,0.767-1.536c0.077-0.147,0.154-0.294,0.233-0.44
				c0.255-0.471,0.523-0.936,0.798-1.397c0.095-0.159,0.186-0.318,0.283-0.476c0.287-0.467,0.589-0.926,0.896-1.382
				c0.091-0.134,0.176-0.272,0.269-0.405c0.404-0.583,0.824-1.158,1.261-1.721c0.205-0.263,0.426-0.504,0.637-0.76
				c0.373-0.454,0.741-0.915,1.129-1.345c0.301-0.334,0.619-0.64,0.928-0.96c0.319-0.329,0.63-0.67,0.958-0.984
				c0.336-0.322,0.687-0.617,1.032-0.923c0.319-0.283,0.631-0.577,0.957-0.846c0.363-0.299,0.739-0.573,1.11-0.856
				c0.324-0.247,0.643-0.504,0.973-0.738c0.384-0.272,0.78-0.519,1.172-0.774c0.331-0.215,0.658-0.439,0.995-0.642
				c0.404-0.243,0.817-0.462,1.228-0.687c0.337-0.185,0.671-0.377,1.013-0.55c0.42-0.212,0.848-0.401,1.274-0.594
				c0.344-0.156,0.685-0.318,1.033-0.462c0.434-0.179,0.875-0.337,1.314-0.497c0.349-0.127,0.696-0.26,1.047-0.375
				c0.447-0.146,0.898-0.271,1.349-0.398c0.242-0.068,0.483-0.136,0.726-0.198c-0.204,6.885,0.42,13.9,1.977,20.909
				c2.556,11.502,13.952,18.753,25.453,16.197s18.753-13.952,16.198-25.453c-1.712-7.702-1.177-15.36,1.099-22.22l0.547-1.458
				c2.197-5.855,5.595-10.927,9.848-14.889c0.018-0.016,0.035-0.032,0.053-0.049c0.485-0.45,0.983-0.884,1.49-1.304
				c0.069-0.057,0.137-0.114,0.206-0.171c0.491-0.401,0.992-0.788,1.502-1.161c0.055-0.04,0.109-0.083,0.164-0.123
				c1.111-0.803,2.267-1.536,3.461-2.199c0.177-0.098,0.358-0.189,0.536-0.284c0.402-0.214,0.808-0.422,1.219-0.62
				c0.236-0.114,0.475-0.223,0.714-0.331c0.363-0.164,0.729-0.321,1.098-0.473c0.265-0.109,0.53-0.217,0.799-0.32
				c0.357-0.136,0.718-0.261,1.08-0.385c0.277-0.095,0.552-0.194,0.833-0.282c0.409-0.128,0.823-0.24,1.237-0.352
				c0.215-0.058,0.427-0.125,0.644-0.179c0.543-0.135,1.087-0.253,1.631-0.36c0.22-0.042,0.44-0.077,0.66-0.115
				c0.254-0.044,0.507-0.087,0.761-0.125c2.876-0.414,5.814-0.425,8.807-0.037l2.18,0.282c13.283,2.608,24.697,13.452,28.14,28.935
				c2.558,11.501,13.954,18.751,25.455,16.194c11.501-2.557,18.751-13.954,16.194-25.455
				C327.358,166.264,309.191,145.533,286.256,135.956z M91.176,159.882c1.608,0.087,3.218,0.131,4.836,0.131
				c54.455,0,99.383-40.812,105.864-93.516c20.006,4.966,37.833,17.158,50.602,34.603c-4.208,9.461-7.186,19.634-8.713,30.292
				c-0.113,0.021-0.225,0.046-0.338,0.067c-0.222,0.042-0.444,0.088-0.666,0.132c-1.195,0.235-2.389,0.492-3.577,0.788
				c-1.274,0.317-2.533,0.671-3.779,1.051c-0.323,0.098-0.638,0.212-0.959,0.314c-0.881,0.281-1.76,0.566-2.627,0.878
				c-0.56,0.201-1.107,0.422-1.66,0.634c-0.602,0.233-1.206,0.461-1.801,0.708c-0.687,0.285-1.361,0.589-2.037,0.893
				c-0.436,0.196-0.874,0.388-1.305,0.593c-0.771,0.364-1.529,0.746-2.284,1.134c-0.314,0.162-0.629,0.321-0.94,0.486
				c-0.833,0.443-1.654,0.903-2.468,1.375c-0.213,0.123-0.425,0.246-0.637,0.372c-0.884,0.524-1.756,1.065-2.615,1.623
				c-0.122,0.079-0.244,0.159-0.366,0.239c-0.93,0.61-1.845,1.239-2.745,1.887c-0.035,0.025-0.07,0.051-0.106,0.077
				c-7.847,5.671-14.556,12.736-19.854,20.79c-0.297-0.022-0.594-0.034-0.891-0.053c-0.452-0.028-0.905-0.061-1.357-0.081
				c-0.656-0.029-1.311-0.045-1.967-0.057c-0.577-0.01-1.154-0.011-1.731-0.008c-0.439,0.002-0.878,0.003-1.316,0.013
				c-0.453,0.01-0.906,0.028-1.358,0.046c-0.426,0.017-0.851,0.037-1.276,0.062c-0.451,0.026-0.901,0.054-1.351,0.088
				c-0.435,0.033-0.869,0.073-1.303,0.114c-0.436,0.041-0.872,0.078-1.307,0.126c-0.635,0.07-1.268,0.154-1.9,0.24
				c-0.565,0.077-1.128,0.164-1.691,0.254c-0.456,0.073-0.911,0.145-1.365,0.226c-0.432,0.077-0.862,0.162-1.293,0.247
				c-0.431,0.085-0.861,0.173-1.291,0.265c-0.428,0.092-0.856,0.187-1.283,0.286c-0.443,0.103-0.883,0.214-1.324,0.325
				c-0.407,0.103-0.814,0.202-1.219,0.312c-0.633,0.171-1.263,0.355-1.892,0.543c-0.505,0.151-1.007,0.31-1.509,0.471
				c-0.476,0.153-0.951,0.305-1.424,0.468c-0.398,0.137-0.793,0.28-1.188,0.424c-0.435,0.157-0.869,0.318-1.301,0.483
				c-0.395,0.151-0.789,0.305-1.182,0.463c-0.446,0.179-0.89,0.366-1.333,0.554c-0.367,0.156-0.735,0.308-1.1,0.47
				c-0.641,0.284-1.278,0.579-1.912,0.881c-0.405,0.193-0.808,0.393-1.21,0.593c-0.5,0.249-1,0.5-1.496,0.76
				c-0.353,0.186-0.703,0.378-1.054,0.57c-0.435,0.237-0.868,0.478-1.299,0.724c-0.352,0.201-0.703,0.404-1.052,0.611
				c-0.443,0.262-0.882,0.531-1.32,0.803c-0.322,0.199-0.645,0.395-0.964,0.6c-0.627,0.401-1.249,0.814-1.866,1.235
				c-0.305,0.208-0.606,0.421-0.908,0.633c-0.519,0.365-1.036,0.733-1.548,1.111c-0.303,0.224-0.602,0.455-0.903,0.684
				c-0.425,0.324-0.849,0.652-1.269,0.986c-0.305,0.242-0.608,0.487-0.909,0.734c-0.427,0.35-0.849,0.707-1.269,1.067
				c-0.275,0.235-0.551,0.468-0.823,0.708c-0.591,0.521-1.176,1.052-1.754,1.593c-0.204,0.191-0.405,0.384-0.607,0.577
				c-0.53,0.506-1.055,1.019-1.573,1.542c-0.25,0.253-0.496,0.511-0.743,0.768c-0.403,0.418-0.804,0.84-1.199,1.269
				c-0.254,0.275-0.506,0.553-0.757,0.832c-0.399,0.445-0.793,0.897-1.184,1.352c-0.224,0.261-0.449,0.519-0.67,0.783
				c-0.538,0.644-1.069,1.299-1.591,1.964c-0.056,0.071-0.114,0.138-0.169,0.209c-0.67,0.861-1.306,1.74-1.937,2.621
				c-0.145,0.203-0.302,0.399-0.445,0.603c-0.745,1.06-1.458,2.135-2.147,3.22c-0.019,0.03-0.04,0.059-0.059,0.089
				c-4.275,6.758-7.465,13.994-9.598,21.46c-13.62-17.143-21.443-39.045-21.443-62.433C91.17,160.539,91.172,160.211,91.176,159.882
				z"/>
		</g>
	</g>
</g>
</svg>